<svg xmlns="http://www.w3.org/2000/svg" viewBox="0 0 512 360">
 <defs><linearGradient id="bg" x1="0" y1="0" x2="1" y2="1"><stop stop-color="#fff6fb"/><stop offset="1" stop-color="#f5e9ff"/></linearGradient><filter id="sh" x="-30%" y="-30%" width="160%" height="180%"><feDropShadow dx="0" dy="10" stdDeviation="10" flood-color="#18304b" flood-opacity=".16"/></filter></defs>
 <rect width="512" height="360" rx="34" fill="url(#bg)"/><circle cx="92" cy="72" r="54" fill="#fff" opacity=".55"/><circle cx="432" cy="286" r="78" fill="#fff" opacity=".45"/>
 <ellipse cx="256" cy="302" rx="142" ry="25" fill="#49627a" opacity=".10"/><g filter="url(#sh)"><path d="M151 78h210v221H151Z" fill="#fff7fb" stroke="#d6aac4" stroke-width="6"/><path d="M171 99h170v177H171Z" fill="#f8ddec"/><circle cx="256" cy="142" r="34" fill="#edbf9e"/><path d="M225 132c9-34 49-46 75-13-9-8-13-7-20-4-15-15-38-5-55 17Z" fill="#6f4c39"/><path d="M223 181h66l39 91H184Z" fill="#d95f9d"/><path d="M230 191 197 239M282 191l33 48" stroke="#edbf9e" stroke-width="16" stroke-linecap="round"/><circle cx="326" cy="112" r="18" fill="#8a6bc9"/></g></svg>